<svg xmlns="http://www.w3.org/2000/svg" version="1.1" xmlns:xlink="http://www.w3.org/1999/xlink" xmlns:svgjs="http://svgjs.dev/svgjs" width="1440" height="560" preserveAspectRatio="none" viewBox="0 0 1440 560"><g mask="url(&quot;#SvgjsMask1060&quot;)" fill="none"><rect width="1440" height="560" x="0" y="0" fill="#0e2a47"></rect><path d="M1495.365,500.15C1537.241,499.589,1580.682,490.599,1603.832,455.699C1629.357,417.218,1633.686,366.536,1610.472,326.618C1587.368,286.89,1541.304,267.854,1495.365,269.187C1451.767,270.452,1413.705,295.572,1391.275,332.979C1368.115,371.603,1357.939,420.444,1381.743,458.675C1404.584,495.358,1452.156,500.729,1495.365,500.15" fill="rgba(28, 83, 142, 0.4)" class="triangle-float3"></path><path d="M784.325,280.729C818.652,282.32,857.342,280.135,875.865,251.191C895.4,220.666,886.413,181.246,867.95,150.06C849.883,119.542,819.771,97.73,784.325,96.569C746.789,95.34,708.254,111.082,690.641,144.252C673.83,175.909,686.105,213.785,706.39,243.337C723.868,268.798,753.475,279.299,784.325,280.729" fill="rgba(28, 83, 142, 0.4)" class="triangle-float1"></path><path d="M510.327,636.817C548.199,637.539,577.284,607.551,596.33,574.809C615.51,541.837,627.622,501.478,608.123,468.693C588.93,436.422,547.736,426.989,510.327,430.209C478.355,432.961,453.781,455.455,437.906,483.343C422.236,510.871,416.303,542.989,429.821,571.636C445.614,605.104,473.327,636.112,510.327,636.817" fill="rgba(28, 83, 142, 0.4)" class="triangle-float3"></path><path d="M972.939,525.614C1011.716,525.608,1052.544,515.84,1072.619,482.664C1093.276,448.525,1085.192,406.354,1066.406,371.151C1046.22,333.325,1015.809,296.516,972.939,295.876C929.289,295.225,895.073,329.777,874.514,368.288C855.264,404.347,851.527,448.041,873.207,482.694C893.78,515.579,934.149,525.62,972.939,525.614" fill="rgba(28, 83, 142, 0.4)" class="triangle-float1"></path><path d="M412.903,239.207C452.157,238.602,487.378,216.208,506.767,182.071C525.913,148.362,527.186,106.649,506.985,73.561C487.551,41.73,450.177,27.065,412.903,28.327C377.873,29.513,347.97,49.949,329.249,79.581C308.912,111.771,296.217,151.318,313.891,185.043C332.607,220.757,372.587,239.828,412.903,239.207" fill="rgba(28, 83, 142, 0.4)" class="triangle-float1"></path><path d="M291.936,122.925C309.856,122.305,329.701,120.368,338.778,104.904C347.93,89.311,341.261,70.256,331.945,54.761C322.98,39.851,309.334,27.031,291.936,26.996C274.488,26.961,261.145,39.963,251.645,54.598C240.908,71.137,229.106,91.366,239.122,108.352C249.065,125.213,272.374,123.602,291.936,122.925" fill="rgba(28, 83, 142, 0.4)" class="triangle-float1"></path></g><defs><mask id="SvgjsMask1060"><rect width="1440" height="560" fill="#ffffff"></rect></mask><style>
                @keyframes float1 {
                    0%{transform: translate(0, 0)}
                    50%{transform: translate(-10px, 0)}
                    100%{transform: translate(0, 0)}
                }

                .triangle-float1 {
                    animation: float1 5s infinite;
                }

                @keyframes float2 {
                    0%{transform: translate(0, 0)}
                    50%{transform: translate(-5px, -5px)}
                    100%{transform: translate(0, 0)}
                }

                .triangle-float2 {
                    animation: float2 4s infinite;
                }

                @keyframes float3 {
                    0%{transform: translate(0, 0)}
                    50%{transform: translate(0, -10px)}
                    100%{transform: translate(0, 0)}
                }

                .triangle-float3 {
                    animation: float3 6s infinite;
                }
            </style></defs></svg>