<svg xmlns="http://www.w3.org/2000/svg" version="1.1" xmlns:xlink="http://www.w3.org/1999/xlink" xmlns:svgjs="http://svgjs.dev/svgjs" width="1440" height="560" preserveAspectRatio="none" viewBox="0 0 1440 560"><g mask="url(&quot;#SvgjsMask1073&quot;)" fill="none"><rect width="1440" height="560" x="0" y="0" fill="rgba(21, 67, 96, 1)"></rect><path d="M0,572.564C104.956,561.04,184.622,482.547,272.412,423.882C358.498,366.355,467.967,327.512,508.976,232.442C549.827,137.739,494.204,32.974,485.359,-69.784C475.849,-180.259,507.881,-296.806,455.027,-394.283C397.18,-500.967,298.816,-587.245,183.794,-625.946C66.864,-665.289,-61.567,-647.177,-178.347,-607.393C-291.909,-568.706,-384.535,-491.82,-466.654,-404.358C-551.593,-313.893,-662.202,-218.899,-659.592,-94.835C-656.976,29.495,-517.225,100.277,-453.787,207.238C-399.299,299.11,-396.977,421.259,-313.774,488.242C-227.669,557.562,-109.881,584.628,0,572.564" fill="#11364e"></path><path d="M1440 1060.301C1542.267 1071.851 1650.444 1077.3339999999998 1740.77 1028.007 1833.739 977.2370000000001 1899.983 886.361 1938.914 787.846 1976.716 692.189 1971.414 587.491 1954.976 485.95799999999997 1938.772 385.869 1904.0810000000001 291.437 1845.186 208.904 1781.868 120.17200000000003 1712.491 17.283000000000015 1605.531-3.7450000000000045 1499.321-24.625 1404.526 58.541 1305.771 102.858 1220.911 140.94 1125.035 164.17399999999998 1067.8600000000001 237.539 1011.8 309.474 1024.1309999999999 408.93399999999997 998.933 496.584 968.681 601.816 865.414 702.245 904.905 804.37 943.967 905.386 1082.233 917.935 1179.937 964.6659999999999 1264.983 1005.3430000000001 1346.323 1049.721 1440 1060.301" fill="#195072"></path></g><defs><mask id="SvgjsMask1073"><rect width="1440" height="560" fill="#ffffff"></rect></mask></defs></svg>